<svg xmlns="http://www.w3.org/2000/svg"
 xmlns:xlink="http://www.w3.org/1999/xlink"
 width="36px" height="32px"  viewBox="0 0 36 32">
<path fill-rule="evenodd"  fill="#222222"
 d="M3.1835938,4.3635216 C3.1835938,4.3635216 6.57666,4.3635216 6.57666,4.3635216 C6.57666,4.3635216 11.409912,21.819016 11.409912,21.819016 C11.547852,22.331047 12.021362,22.685806 12.553955,22.685806 C12.553955,22.685806 27.40857,22.685806 27.40857,22.685806 C27.881958,22.685806 28.296265,22.409683 28.49353,21.976685 C28.49353,21.976685 33.89868,9.564873 33.89868,9.564873 C34.05652,9.190407 34.01709,8.776718 33.80017,8.441868 C33.583008,8.107014 33.208252,7.9099274 32.81372,7.9099274 C32.81372,7.9099274 16.400757,7.9099274 16.400757,7.9099274 C15.749756,7.9099274 15.217163,8.441868 15.217163,9.09206 C15.217163,9.742054 15.749756,10.274193 16.400757,10.274193 C16.400757,10.274193 30.998901,10.274193 30.998901,10.274193 C30.998901,10.274193 26.619507,20.321735 26.619507,20.321735 C26.619507,20.321735 13.44165,20.321735 13.44165,20.321735 C13.44165,20.321735 8.6085205,2.8662453 8.6085205,2.8662453 C8.470581,2.3542137 7.9970703,1.9992561 7.4643555,1.9992561 C7.4643555,1.9992561 3.1835938,1.9992561 3.1835938,1.9992561 C2.5325928,1.9992561 2.0,2.5315933 2.0,3.1815872 C2.0,3.8317833 2.5325928,4.3635216 3.1835938,4.3635216 ZM11.429443,30.999367 C12.909058,30.999367 14.112427,29.798119 14.112427,28.320152 C14.112427,26.84259 12.909058,25.641342 11.429443,25.641342 C9.949951,25.641342 8.746582,26.84259 8.746582,28.320152 C8.746582,29.797722 9.949951,30.999367 11.429443,30.999367 ZM28.197632,30.999367 C28.256836,30.999367 28.335815,30.999367 28.39502,30.999367 C29.105103,30.940437 29.756104,30.625298 30.229614,30.073448 C30.703003,29.541908 30.920044,28.852295 30.880493,28.123466 C30.781982,26.665207 29.499756,25.542397 28.020142,25.641342 C26.540527,25.739288 25.435791,27.039673 25.534546,28.497536 C25.633179,29.896065 26.796997,30.999367 28.197632,30.999367 Z"/>
</svg>